<?xml version="1.0" standalone="no"?>
<!DOCTYPE svg PUBLIC "-//W3C//DTD SVG 20010904//EN"
 "http://www.w3.org/TR/2001/REC-SVG-20010904/DTD/svg10.dtd">
<svg version="1.0" xmlns="http://www.w3.org/2000/svg"
 width="5004.000000pt" height="4995.000000pt" viewBox="0 0 5004.000000 4995.000000"
 preserveAspectRatio="xMidYMid meet">

<g transform="translate(0.000000,4995.000000) scale(0.100000,-0.100000)"
fill="#000000" stroke="none">
<path d="M22230 37222 c-32 -15 -57 -39 -90 -87 -34 -48 -42 -64 -93 -170 -13
-27 -28 -59 -35 -70 -6 -11 -52 -103 -101 -205 -125 -261 -335 -691 -540
-1111 -56 -114 -101 -210 -101 -215 0 -4 -6 -15 -14 -23 -24 -28 -56 -131 -56
-181 0 -57 1 -58 175 -165 61 -37 112 -70 115 -74 8 -10 43 -31 63 -37 9 -4
17 -10 17 -15 0 -5 4 -9 9 -9 12 0 585 -381 589 -392 2 -4 9 -8 15 -8 7 0 24
-10 38 -22 14 -13 33 -27 42 -33 42 -25 194 -131 207 -144 8 -8 39 -30 70 -49
30 -20 59 -40 65 -44 5 -5 35 -27 65 -49 30 -21 60 -42 65 -47 6 -4 53 -38
105 -76 52 -39 97 -73 98 -78 2 -4 8 -8 13 -8 6 0 35 -19 66 -42 30 -24 70
-53 87 -65 17 -12 36 -26 41 -30 21 -18 170 -130 214 -160 100 -71 145 -35
327 267 21 36 44 74 51 85 7 11 16 27 20 35 6 12 62 107 113 190 17 28 132
231 190 334 62 112 257 510 291 594 5 12 13 32 19 45 22 52 53 136 71 197 11
36 27 86 35 111 8 26 18 87 21 136 l6 89 -43 49 c-24 28 -52 58 -64 68 -12 10
-37 33 -56 50 -19 18 -66 57 -105 87 -38 30 -77 61 -85 67 -20 16 -232 174
-261 193 -12 8 -40 29 -62 45 -58 42 -212 150 -347 241 -63 43 -117 81 -120
84 -5 5 -226 153 -261 175 -18 11 -51 33 -238 156 -73 49 -135 89 -137 89 -3
0 -46 26 -97 58 -51 32 -105 65 -122 74 -16 8 -61 32 -100 52 -68 37 -144 53
-175 38z"/>
<path d="M38775 31453 c-26 -7 -95 -81 -123 -133 -41 -77 -49 -95 -77 -155
-15 -33 -31 -68 -36 -78 -6 -10 -28 -55 -50 -100 -56 -114 -54 -109 -71 -142
-15 -30 -125 -254 -209 -430 -24 -49 -47 -91 -51 -93 -4 -2 -8 -12 -8 -23 0
-11 -10 -36 -23 -57 -13 -20 -31 -55 -41 -77 -20 -44 -57 -119 -73 -150 -6
-11 -23 -47 -38 -80 -15 -33 -34 -73 -43 -90 -9 -16 -19 -37 -23 -45 -5 -8
-42 -86 -84 -172 -71 -149 -75 -161 -75 -226 0 -67 1 -70 34 -96 19 -14 38
-26 42 -26 4 0 22 -11 40 -25 18 -14 37 -25 43 -25 6 0 11 -4 11 -10 0 -5 5
-10 11 -10 6 0 29 -13 52 -29 64 -44 330 -216 347 -224 8 -4 49 -32 90 -62 41
-30 82 -58 90 -62 8 -4 17 -9 20 -12 3 -3 52 -37 110 -76 57 -38 109 -73 115
-78 26 -19 318 -223 333 -232 18 -12 24 -16 74 -53 20 -15 47 -35 60 -44 149
-107 224 -163 226 -170 2 -4 8 -8 14 -8 9 0 57 -33 114 -80 17 -14 44 -34 60
-45 15 -11 83 -60 149 -110 67 -49 131 -96 143 -102 66 -39 135 11 222 162 14
23 41 68 60 100 19 31 40 64 45 73 6 10 31 53 58 97 26 44 52 87 57 95 12 20
68 116 93 160 11 19 39 69 62 110 23 41 51 91 62 110 16 27 97 183 174 330 4
8 20 42 35 75 14 33 35 78 46 100 11 22 37 85 59 140 22 55 44 109 49 120 20
40 59 174 76 255 22 112 16 176 -22 219 -61 70 -131 131 -320 279 -27 21 -106
80 -279 207 -38 28 -98 70 -134 95 -36 25 -97 68 -136 94 -38 27 -86 61 -106
77 -20 16 -40 29 -44 29 -5 0 -27 16 -51 35 -23 19 -44 35 -47 35 -3 0 -33 19
-67 43 -34 23 -69 47 -78 52 -9 6 -33 22 -53 38 -20 15 -41 27 -46 27 -6 0
-18 9 -28 20 -10 11 -21 20 -26 20 -4 0 -51 29 -104 65 -54 36 -100 65 -102
65 -2 0 -25 15 -51 33 -52 35 -79 53 -102 63 -8 4 -35 21 -60 38 -25 17 -54
36 -65 42 -11 6 -47 26 -80 44 -140 77 -198 96 -250 83z"/>
<path d="M13006 29903 c-23 -99 -34 -463 -17 -568 15 -94 37 -201 51 -250 19
-66 58 -182 68 -201 5 -11 38 -77 73 -148 80 -164 211 -360 354 -535 64 -77
456 -533 471 -546 6 -5 35 -41 65 -80 29 -38 57 -74 62 -80 4 -5 42 -55 84
-110 42 -55 79 -102 82 -105 14 -12 89 -107 106 -135 11 -16 33 -48 50 -70 16
-21 35 -47 40 -56 6 -10 52 -84 103 -164 50 -80 92 -152 92 -160 0 -7 4 -15 9
-17 5 -1 20 -28 34 -58 15 -30 33 -66 41 -80 19 -32 97 -199 126 -270 12 -30
29 -69 36 -87 8 -17 14 -34 14 -37 0 -3 8 -25 18 -49 22 -51 34 -83 74 -207
17 -52 34 -101 38 -110 7 -14 20 -60 40 -140 4 -19 20 -78 35 -130 15 -52 31
-113 35 -135 4 -22 12 -60 18 -85 6 -25 16 -70 22 -100 6 -30 20 -100 31 -155
11 -55 25 -135 29 -177 5 -43 11 -82 15 -88 3 -5 10 -51 15 -102 5 -51 13
-133 19 -183 5 -49 14 -144 20 -210 6 -66 16 -176 22 -245 13 -155 7 -1149 -9
-1330 -6 -69 -18 -206 -27 -305 -9 -99 -20 -233 -25 -297 -5 -65 -12 -123 -16
-129 -3 -6 -10 -57 -15 -113 -5 -55 -13 -126 -19 -156 -13 -71 -39 -254 -50
-352 -4 -42 -11 -82 -16 -89 -4 -7 -11 -45 -15 -83 -4 -39 -17 -118 -29 -174
-11 -57 -19 -109 -17 -115 3 -7 16 15 31 48 14 33 33 73 41 88 8 16 15 35 15
43 0 8 9 32 20 53 10 21 29 67 41 102 12 35 25 69 29 74 4 6 10 25 13 42 4 18
16 52 27 75 11 23 20 51 20 63 0 12 3 25 7 29 7 7 24 61 43 136 4 19 16 55 26
80 9 25 20 61 25 80 4 19 15 62 24 95 9 33 20 80 25 105 5 25 16 70 25 100 9
30 21 75 26 100 5 25 15 77 23 115 31 153 67 354 76 425 58 449 73 612 91
1005 18 392 -7 909 -67 1395 -8 69 -19 157 -23 195 -7 62 -42 276 -57 345 -15
73 -36 181 -44 230 -5 30 -16 78 -25 105 -9 28 -20 73 -25 100 -5 28 -16 79
-25 115 -9 36 -20 81 -24 100 -4 19 -17 67 -29 105 -12 39 -33 111 -47 160
-14 50 -35 117 -47 150 -11 33 -23 74 -26 90 -2 17 -8 32 -11 35 -3 3 -15 32
-25 65 -31 99 -49 145 -57 151 -5 3 -9 18 -9 33 0 15 -4 31 -9 37 -5 5 -18 37
-29 70 -12 34 -30 82 -41 105 -20 46 -47 109 -60 144 -4 11 -19 45 -33 75 -14
30 -38 82 -53 115 -51 113 -160 328 -275 540 -18 33 -36 62 -41 63 -5 2 -9 7
-9 12 0 5 -22 45 -50 89 -27 44 -50 85 -50 90 0 5 -4 11 -8 13 -10 4 -92 128
-92 138 0 5 -4 10 -9 12 -5 2 -28 32 -52 68 -23 36 -55 81 -70 100 -16 19 -57
71 -91 115 -35 44 -70 88 -78 99 -8 10 -22 26 -30 35 -8 10 -42 48 -75 86
-196 227 -468 473 -730 662 -80 57 -303 193 -318 193 -2 0 -12 -35 -21 -77z"/>
<path d="M44868 13025 c-37 -25 -118 -124 -118 -145 0 -5 -3 -10 -8 -10 -7 0
-10 -4 -47 -77 -23 -46 -95 -166 -104 -173 -7 -6 -28 -39 -38 -60 -7 -15 -17
-28 -40 -55 -7 -7 -13 -18 -13 -23 0 -6 -4 -12 -8 -14 -4 -1 -29 -31 -55 -65
-26 -34 -53 -68 -60 -75 -7 -7 -23 -26 -36 -43 -111 -144 -559 -588 -754 -748
-22 -18 -64 -55 -95 -83 -32 -28 -102 -88 -157 -133 -55 -46 -109 -90 -120
-99 -22 -19 -147 -117 -253 -200 -37 -29 -72 -57 -79 -62 -7 -6 -14 -10 -17
-10 -2 0 -48 -29 -101 -65 -54 -36 -101 -65 -105 -65 -5 0 -10 -3 -12 -7 -4
-11 -127 -93 -138 -93 -5 0 -10 -4 -12 -8 -1 -5 -34 -29 -73 -53 -38 -24 -74
-47 -80 -51 -34 -27 -127 -88 -135 -88 -6 0 -10 -4 -10 -10 0 -5 -4 -10 -10
-10 -5 0 -29 -13 -52 -29 -149 -101 -459 -301 -468 -301 -5 0 -10 -4 -10 -8 0
-4 -15 -16 -32 -27 -18 -10 -98 -62 -178 -114 -80 -53 -149 -98 -155 -100 -5
-2 -12 -7 -15 -10 -3 -3 -14 -12 -25 -18 -11 -7 -69 -44 -130 -83 -60 -39
-119 -76 -130 -83 -11 -7 -40 -26 -65 -43 -41 -28 -288 -185 -328 -209 -9 -5
-31 -20 -49 -32 -17 -13 -36 -23 -42 -23 -6 0 -11 -4 -11 -9 0 -5 -8 -11 -17
-15 -10 -3 -38 -19 -63 -36 -25 -16 -67 -43 -95 -59 -27 -16 -55 -34 -60 -39
-17 -14 -855 -537 -910 -567 -27 -15 -64 -38 -82 -51 -17 -13 -36 -24 -42 -24
-6 0 -11 -4 -11 -10 0 -5 -4 -10 -10 -10 -5 0 -75 -40 -155 -90 -80 -49 -148
-90 -150 -90 -3 0 -39 -22 -81 -50 -41 -27 -78 -50 -80 -50 -4 0 -76 -43 -130
-78 -10 -6 -26 -15 -34 -19 -8 -4 -50 -28 -92 -55 -43 -26 -80 -48 -82 -48 -2
0 -41 -22 -85 -50 -44 -27 -83 -50 -86 -50 -5 0 -53 -28 -131 -77 -10 -7 -35
-20 -54 -29 -19 -10 -42 -23 -50 -30 -8 -6 -31 -21 -50 -31 -123 -68 -158 -88
-185 -104 -16 -10 -55 -31 -85 -47 -51 -27 -141 -84 -251 -156 -24 -16 -45
-33 -47 -37 -2 -5 -8 -9 -14 -9 -12 0 -103 -74 -151 -125 -57 -59 -48 -70 53
-68 47 1 108 9 135 17 116 35 183 56 240 77 193 70 245 89 295 108 30 12 89
34 129 48 41 14 86 32 100 40 15 7 31 13 38 13 7 0 27 6 45 14 18 8 78 31 133
51 55 21 114 44 132 51 17 8 37 14 45 14 8 0 18 3 21 6 4 4 28 15 54 24 27 10
73 27 103 39 30 12 82 31 115 42 33 12 78 30 101 40 22 10 48 19 57 19 9 0 18
4 22 9 3 5 19 12 35 16 17 4 59 18 93 32 100 40 158 63 222 85 33 11 78 29 99
39 22 11 46 19 53 19 7 0 21 4 31 10 18 10 125 53 252 100 42 15 112 42 155
60 44 17 103 41 130 52 28 11 77 33 110 48 33 16 87 40 120 55 66 30 100 46
130 62 11 6 63 32 115 58 134 67 289 149 387 206 47 27 87 49 89 49 4 0 77 43
130 78 10 6 26 15 34 19 19 9 208 124 277 169 28 19 53 34 56 34 2 0 47 28 99
63 52 34 102 67 111 72 111 68 716 495 737 520 7 8 17 15 22 15 5 0 15 6 22
13 8 6 24 19 36 27 31 21 254 193 260 200 3 4 30 27 60 51 55 45 74 61 179
153 90 78 300 276 360 340 31 33 79 82 107 110 27 28 86 92 129 141 43 50 82
92 85 95 3 3 35 41 70 85 35 44 67 82 70 85 3 3 31 39 63 80 31 41 61 80 67
87 5 7 10 15 10 18 0 4 15 25 34 48 57 71 296 435 296 451 0 3 15 29 33 58 19
29 37 60 40 68 4 8 17 31 29 50 74 121 345 666 369 740 4 14 20 57 34 95 25
64 55 188 55 226 0 8 -6 23 -12 32 -12 16 -16 15 -50 -8z"/>
<path d="M25079 12042 c-43 -27 -104 -97 -186 -211 -114 -157 -161 -213 -318
-381 -75 -80 -341 -325 -391 -360 -12 -8 -64 -49 -115 -90 -148 -120 -214
-170 -369 -280 -147 -105 -388 -270 -394 -270 -8 0 -131 -85 -134 -92 -2 -4
-8 -8 -14 -8 -6 0 -37 -18 -69 -40 -32 -22 -61 -40 -65 -40 -3 0 -20 -11 -37
-24 -31 -23 -102 -62 -327 -177 -58 -30 -107 -56 -110 -59 -3 -3 -39 -22 -80
-44 -41 -21 -145 -75 -230 -119 -145 -76 -206 -107 -537 -278 -141 -72 -429
-221 -459 -237 -11 -6 -53 -27 -94 -48 -248 -125 -487 -247 -500 -254 -8 -5
-53 -27 -100 -50 -47 -23 -92 -45 -100 -49 -32 -17 -86 -45 -100 -52 -8 -3
-33 -16 -55 -27 -39 -20 -95 -48 -185 -91 -25 -12 -52 -25 -60 -30 -8 -5 -154
-78 -325 -161 -305 -149 -380 -186 -420 -207 -11 -6 -67 -33 -125 -60 -122
-58 -259 -124 -452 -217 -76 -36 -140 -66 -143 -66 -5 0 -134 -60 -291 -136
-39 -19 -75 -34 -81 -34 -6 0 -16 -7 -23 -15 -7 -8 -19 -15 -27 -15 -17 0
-127 -52 -131 -62 -2 -5 -10 -8 -19 -8 -8 0 -27 -6 -41 -14 -15 -7 -38 -18
-52 -24 -14 -6 -64 -29 -111 -51 -47 -23 -89 -41 -94 -41 -4 0 -42 -16 -84
-36 -42 -20 -89 -43 -106 -50 -16 -7 -46 -19 -65 -27 -105 -45 -165 -73 -255
-119 -55 -28 -110 -56 -122 -62 -13 -6 -23 -14 -23 -18 0 -5 -5 -8 -10 -8 -10
0 -116 -69 -153 -100 -56 -46 -40 -80 37 -80 97 0 321 38 451 75 28 8 106 28
175 45 69 17 154 39 190 50 36 11 139 38 230 60 90 23 172 46 181 51 10 5 28
9 40 9 11 0 42 7 68 15 73 23 272 77 316 86 22 4 65 14 95 23 30 8 84 22 120
30 36 9 76 21 89 27 14 6 43 14 65 19 45 9 271 68 381 100 39 11 88 24 110 29
70 16 182 48 193 55 6 3 30 10 54 15 55 11 243 66 288 85 19 7 73 26 120 41
47 15 112 37 145 50 33 13 94 35 135 50 41 15 102 39 135 52 33 14 69 29 80
33 88 37 321 137 370 160 166 77 429 204 455 219 8 5 39 21 68 35 28 14 73 37
100 50 26 13 54 27 62 30 8 3 31 16 50 27 19 12 78 44 130 72 52 28 112 61
132 74 21 13 44 23 53 23 8 0 15 4 15 9 0 5 10 13 23 17 12 3 29 12 37 19 8 7
47 29 85 50 39 21 82 46 97 56 14 11 29 19 32 19 4 0 41 22 84 48 42 26 84 51
92 55 28 13 177 105 282 175 44 28 84 52 89 52 5 0 9 4 9 8 0 5 16 17 35 28
19 10 35 22 35 26 0 5 5 8 10 8 6 0 16 5 23 10 17 15 92 69 156 113 31 22 58
42 61 46 3 3 39 31 81 62 41 31 82 64 91 73 9 8 51 43 94 77 77 62 98 80 248
219 151 139 386 380 468 480 20 25 52 62 70 82 39 44 52 59 98 118 19 25 42
54 52 65 21 26 144 193 186 253 18 26 61 88 95 137 35 50 72 106 82 125 11 19
23 37 26 40 3 3 26 37 49 75 24 39 54 84 67 101 13 17 23 34 23 37 0 4 17 35
38 69 100 164 168 311 188 403 18 88 -1 114 -57 77z"/>
</g>
</svg>
